<svg width="800" height="600" xmlns="http://www.w3.org/2000/svg">

 <g>
  <title>Layer 1</title>
  <path stroke="#fff" stroke-width="3" id="svg_1" d="m7.6,22.2l773.00005,0l0,555.00008l-773.00005,0l0,-555.00008z" opacity="undefined" fill="#000"/>
  <ellipse stroke="#fff" ry="205.50001" rx="359" id="svg_19" cy="252.29999" cx="378.4" stroke-width="7" fill="#000"/>
  <path stroke="#fff" id="svg_9" d="m159.34534,297.5367l-20.37769,8.0798l24.36597,6.87259l29.23916,0c0.73098,0.22909 23.87865,-10.0798 23.87865,-10.0798c0,0 15.83788,-9.16345 15.1069,-9.39254c0.73098,0.22909 9.25907,-13.51609 8.52809,-13.74518c0.73098,0.22909 5.60417,-14.66152 4.87319,-14.89061c0.73098,0.22909 -0.48732,-12.37066 -1.2183,-12.59975c0.73098,0.22909 -10.23371,-14.66152 -10.96469,-14.89061c0.73098,0.22909 -16.3252,-12.37066 -17.05618,-12.59975c0.73098,0.22909 -19.9801,-2.06178 -20.71107,-2.29086c0.73098,0.22909 -22.41669,3.66538 -23.14767,3.43629c0.73098,0.22909 -21.19839,9.39254 -21.92937,9.16345c0.73098,0.22909 -17.5435,11.6834 -18.27448,11.45431c0.73098,0.22909 -16.3252,15.11969 -17.05618,14.89061c0.73098,0.22909 -5.36051,15.11969 -6.09149,14.89061c0.73098,0.22909 -1.70562,15.11969 -2.4366,14.89061c0.73098,0.22909 -1.70562,18.55599 -1.70562,18.55599c0,0 6.09149,25.19949 6.09149,25.19949c0,0 24.36597,14.89061 23.63499,14.66152c0.73098,0.22909 27.53355,2.51995 26.80257,2.29086c0.73098,0.22909 45.80802,0.22909 45.07704,0c0.73098,0.22909 23.87865,7.10167 23.14767,6.87259c0.73098,0.22909 15.35056,13.97426 14.61958,13.74518c0.73098,0.22909 0.73098,24.28315 0,24.05406c0.73098,0.22909 -33.38138,11.6834 -34.11236,11.45431c0.73098,0.22909 -34.59968,3.66538 -35.33066,3.43629c0.73098,0.22909 -38.25457,-0.91635 -38.98555,-1.14543c0.73098,0.22909 -43.12777,-8.93436 -43.85875,-9.16345c0.73098,0.22909 -24.85329,-11.22523 -25.58427,-11.45431c0.73098,0.22909 -26.21651,-15.26127 -31.1051,-30.49035c-1.34783,-28.77091 0.16031,-26.55213 -0.57067,-26.78122c-0.30842,-14.77091 0.51811,-16.37066 18.79258,-24.38868c18.27448,-8.01802 9.95926,-4.01802 9.22828,-4.24711c0.73098,0.22909 26.31525,8.24711 25.58427,8.01802c0.73098,0.22909 29.97014,13.97426 29.23916,13.74518c0.73098,0.22909 37.27993,8.24711 36.54895,8.01802c0.73098,0.22909 28.75184,2.51995 28.02087,2.29086c0.73098,0.22909 38.49823,-2.06178 37.76725,-2.29086" opacity="NaN" stroke-dasharray="5,2,2,2" stroke-width="8" fill="#000000"/>
  <path id="svg_7" d="m615.6,385.2c0,0 12,7 11.4,6.8c0.6,0.2 20.6,6.2 20,6c0.6,0.2 21.6,0.2 21,0c0.6,0.2 23.6,-7.8 23,-8c0.6,0.2 18.6,-14.8 18,-15c0.6,0.2 12.6,-28.8 12,-29c0.6,0.2 -1.4,-27.8 -2,-28c0.6,0.2 0.6,-13.8 0,-14c0.6,0.2 -7.4,-21.8 -8,-22c0.6,0.2 -7.4,-5.8 -8,-6c0.6,0.2 -15.4,-11.8 -16,-12c0.6,0.2 -15.4,-12.8 -16,-13c0.6,0.2 -7.4,-9.8 -8,-10c0.6,0.2 -21.4,-26.8 -22,-27c0.6,0.2 -15.4,-9.8 -16,-10c0.6,0.2 -20.4,-3.8 -21,-4c0.6,0.2 -16.4,-0.8 -17,-1" opacity="NaN" stroke-dasharray="5,2,2,2" stroke-width="8" stroke="#fff" fill="#000000"/>
  <path transform="rotate(0.20457 392.402 176.609)" stroke-dasharray="5,2,2,2" stroke-width="2" id="svg_2" d="m197.53914,107.0209c2.65464,-0.37083 21.93587,14.75536 22.29953,17.8034c0.53093,4.45079 12.74264,4.45079 15.92821,4.45079c3.18574,0 26.0162,9.64348 41.41348,20.02885c15.39745,10.38526 60.52743,0.74178 63.71301,0c3.18574,-0.7419 148.66385,-20.39968 187.95345,-6.67624c18.8697,6.59092 56.06368,-16.69484 60.92567,-65.09359c-1.99103,-32.26849 -43.53055,-33.47952 -52.16509,-23.64504c-6.37132,4.35808 -17.25562,3.05994 -14.6008,-4.91445c2.41396,-5.34002 18.58285,-21.79053 48.44842,-14.55792c25.31886,6.13154 39.96326,20.87917 45.39553,42.56104c3.58381,46.73383 -46.59025,81.22778 -46.59025,81.22778c0,0 3.98205,12.23988 9.55706,20.02885c5.57484,7.78897 7.16763,34.49395 6.37115,37.83201c-0.79631,3.33818 23.89248,21.69794 31.85659,22.25419c6.90225,2.22545 26.28175,43.39577 27.07806,52.29735c7.1678,2.50358 -0.79631,15.02158 -9.55689,16.69067c-8.76058,1.66909 -11.14985,-10.01443 -11.14985,-15.57794c0,-5.56352 -8.76058,-31.71225 -33.44938,-34.49395c-24.68879,-2.78182 -46.19184,-12.23988 -46.19184,-12.23988c0,0 -1.59296,5.56364 -4.77853,7.78909c0,0 7.9641,9.45794 7.9641,23.3668c-0.79631,6.11988 -13.53894,25.03601 -22.29953,26.7051c0,0 -14.33542,15.57794 -20.70674,15.57794c-6.37132,0 -17.52117,5.56352 -35.04216,-1.11273c0,0 3.18557,-13.90885 19.11395,-10.01443c0,0 37.43143,-20.02873 19.11378,-28.93043c0,0 -11.14968,-11.12703 -17.521,-15.57794c-6.37132,-4.45079 -12.74264,-11.6834 -14.33542,-20.02873c0,0 -53.35964,-2.22545 -66.89875,-4.45091c-13.53894,-2.22534 -38.22774,3.33818 -38.22774,6.67624c0,3.33818 3.98205,35.05043 11.14968,41.17031c0,0 2.38927,7.78897 0,10.01443c-2.38927,2.22534 8.76058,20.5851 -12.74264,18.91601c-20.3085,2.50358 -30.26363,-8.62346 -6.37115,-12.23976c1.19455,-11.96164 -30.2638,-62.58989 -50.97054,-55.63553c-27.07806,2.78182 -17.91924,-13.63061 -44.59905,12.23988c-27.87454,22.81043 -75.65933,38.94474 -78.04843,48.95916c0,0 -14.33542,-2.22545 -17.52117,5.56352c0,0 -37.43143,3.33818 -35.04216,-1.11273c2.38927,-4.45079 4.38029,-13.63061 19.11395,-10.01431c0,0 33.44938,-9.17994 65.30579,-56.74826c0,0 -3.98205,-12.23976 1.59279,-22.25419c5.57501,-10.01431 -3.18557,-51.18462 -43.00627,-48.95916c0,0 -14.86635,3.70901 -23.89231,-13.35249c0,0 -3.71667,-3.33818 0,-6.67624c3.7165,-3.33818 12.74264,-8.53075 14.33542,-12.23976c1.59279,-3.70913 5.30946,-9.27265 25.4851,-14.46533c9.55706,-6.95437 -1.06169,-20.77051 1.59296,-21.14146z" stroke="#fff" fill="#ffffff"/>
  <path stroke="#fff" id="svg_5" d="m379.5053,312.2l-21.55791,20.08323l-13.97745,15.51833l-6.96994,18.2571l7.96242,13.04079l9.92484,6.0857c0.59549,0.17388 1.58797,2.78203 24.41511,5.39019c22.82713,2.60816 22.82713,2.60816 22.23164,2.43428c0.59549,0.17388 19.45269,-3.30367 18.8572,-3.47754c-2.40451,-2.82612 15.48275,-13.7363 14.88726,-13.91017c0.59549,0.17388 7.54288,-10.25875 16.47523,-22.43015c8.93236,-12.1714 8.93236,-12.1714 8.33687,-12.34528c0.59549,0.17388 6.55039,-11.12814 5.9549,-11.30202c0.59549,0.17388 6.55039,-5.91182 5.9549,-6.0857c0.59549,0.17388 -4.36693,21.03914 -4.96242,20.86526c0.59549,0.17388 -4.36693,17.56159 -4.36693,17.56159c0,0 0,13.91017 -0.59549,13.7363" opacity="NaN" stroke-dasharray="5,2,2,2" stroke-width="8" fill="#000000"/>
  <path id="svg_6" d="m461.6,378.2l13.4,19.8l44,19l18,-1l12,-2l23,-8l15,-11l14,-12l13,-15l10,-18l9,-19l7,-18l-12,-4l-16,-1l-15,7l-8,11l-2,15l7,22l12,11l12,10" opacity="NaN" stroke-dasharray="5,2,2,2" stroke-width="8" stroke="#fff" fill="#000000"/>
  <path stroke="#fff" id="svg_10" d="m224.6,334.19999c9,-2 10.36436,0.80746 18.68091,1.43975c2.68345,-7.6323 17.76965,-12.50186 17.0862,-12.86956c0.68345,0.3677 15.49149,-10.66335 14.80804,-11.03105c0.68345,0.3677 21.18689,-12.50186 20.50344,-12.86956c0.68345,0.3677 21.18689,-6.98633 20.50344,-7.35404c0.68345,0.3677 23.46505,-3.30932 22.7816,-3.67702c0.68345,0.3677 20.04781,-1.47081 19.36436,-1.83851c0.68345,0.3677 14.35241,2.20621 13.66896,1.83851" opacity="NaN" stroke-dasharray="5,2,2,2" stroke-width="8" fill="#000000"/>
  <path id="svg_13" d="m383.6,287.2l13.4,1.8l13,7l0,8l-11,7l-10,1l-8,1" opacity="NaN" stroke-dasharray="5,2,2,2" stroke-width="8" stroke="#fff" fill="#000000"/>
 </g>
</svg>